<svg width="40" height="49" viewBox="0 0 40 49" fill="none" xmlns="http://www.w3.org/2000/svg">
<path d="M2.06425 17.9929C-2.07376 25.1737 0.556852 36.0708 5.13281 42.6782C7.41694 45.9815 9.72947 48.9467 12.8969 48.9467C12.9566 48.9467 13.0164 48.9456 13.0777 48.9432C14.5659 48.8838 15.6413 48.4256 16.681 47.9829C17.8484 47.4854 19.0557 46.971 20.9494 46.971C22.7509 46.971 23.9006 47.4687 25.0124 47.9498C26.1082 48.4239 27.2368 48.9143 28.9046 48.883C32.4724 48.8166 34.6629 45.6169 36.5956 42.7942C38.6124 39.8469 39.6241 36.9854 39.9654 35.8919L39.9792 35.8484C40.0442 35.6541 39.9524 35.4419 39.7661 35.3564C39.7609 35.354 39.742 35.3461 39.7367 35.3438C39.1084 35.0869 33.5972 32.642 33.5393 25.9782C33.4855 20.5642 37.6737 17.6972 38.5137 17.1775L38.5528 17.1531C38.6438 17.0946 38.7072 17.0017 38.7287 16.8954C38.7502 16.7893 38.7278 16.6789 38.6668 16.5897C35.7759 12.3591 31.345 11.7215 29.5611 11.6448C29.3022 11.619 29.035 11.606 28.7667 11.606C26.6715 11.606 24.6643 12.3973 23.0518 13.0331C21.9387 13.472 20.9773 13.8511 20.3142 13.8511C19.569 13.8511 18.6022 13.4674 17.4825 13.0232C15.9852 12.4289 14.2881 11.7555 12.4915 11.7555C12.4487 11.7555 12.4065 11.756 12.3649 11.7568C8.18757 11.8183 4.24037 14.2082 2.06425 17.9929Z" fill="white"/>
<path d="M29.5647 0.000308354C27.0351 0.103337 24.0005 1.66049 22.1868 3.78493C20.6453 5.57061 19.1396 8.54785 19.5363 11.5489C19.5611 11.7366 19.7139 11.8815 19.9028 11.8961C20.0736 11.9095 20.2478 11.9162 20.4215 11.9164C22.895 11.9164 25.5633 10.5479 27.3856 8.34453C29.3035 6.01787 30.2733 3.03196 29.9799 0.357379C29.9568 0.147791 29.7724 -0.00787618 29.5647 0.000308354Z" fill="white"/>
</svg>
